<svg xmlns="http://www.w3.org/2000/svg" width="348" height="109" viewBox="0 0 348 109" fill="none"><path d="M0 104.372V87.791H2.132V93.733C2.132 93.84 2.187 93.894 2.298 93.894C2.392 93.894 2.479 93.84 2.558 93.733C3.032 93.142 3.612 92.716 4.299 92.455C4.994 92.186 5.772 92.052 6.632 92.052C7.382 92.052 8.11601 92.178 8.83501 92.431C9.55301 92.677 10.201 93.061 10.777 93.583C11.361 94.097 11.827 94.754 12.175 95.552C12.522 96.343 12.696 97.287 12.696 98.385C12.696 99.475 12.522 100.419 12.175 101.217C11.827 102.016 11.361 102.676 10.777 103.198C10.201 103.712 9.55301 104.096 8.83501 104.349C8.11601 104.595 7.382 104.718 6.632 104.718C4.761 104.718 3.356 104.088 2.416 102.829C2.329 102.707 2.242 102.645 2.155 102.645C2.037 102.645 1.95801 102.707 1.91901 102.829L1.42101 104.372H0ZM2.013 98.385C2.013 99.82 2.412 100.929 3.209 101.712C4.015 102.488 5.03699 102.875 6.27699 102.875C7.52399 102.875 8.54699 102.488 9.34399 101.712C10.142 100.929 10.54 99.82 10.54 98.385C10.54 96.941 10.142 95.832 9.34399 95.057C8.54699 94.282 7.52399 93.894 6.27699 93.894C5.03699 93.894 4.015 94.282 3.209 95.057C2.412 95.832 2.013 96.941 2.013 98.385Z" fill="#F3F4FA"></path><path d="M13.8979 92.858V92.397H16.054L19.5829 102.461C19.6219 102.584 19.701 102.645 19.82 102.645C19.938 102.645 20.017 102.584 20.057 102.461L23.586 92.397H25.741V92.858L21.1219 105.754C20.8539 106.506 20.526 107.101 20.139 107.539C19.76 107.977 19.279 108.287 18.695 108.472C18.118 108.656 17.3959 108.748 16.5269 108.748H14.253V106.906H18.067C18.327 106.906 18.485 106.829 18.541 106.675L19.228 104.879C19.299 104.695 19.306 104.564 19.251 104.488C19.196 104.411 19.0929 104.372 18.9429 104.372H18.02L13.8979 92.858Z" fill="#F3F4FA"></path><path d="M34.7939 104.372V87.791H39.9109C41.4899 87.791 42.864 88.075 44.032 88.643C45.208 89.204 46.116 90.094 46.756 91.315C47.403 92.535 47.7269 94.124 47.7269 96.082C47.7269 98.039 47.403 99.628 46.756 100.849C46.116 102.069 45.208 102.964 44.032 103.532C42.864 104.092 41.4899 104.372 39.9109 104.372H34.7939ZM37.0679 102.392H39.9109C41.0789 102.392 42.0739 102.2 42.8949 101.816C43.7239 101.425 44.3559 100.772 44.7899 99.859C45.2319 98.937 45.4529 97.678 45.4529 96.082C45.4529 94.485 45.2319 93.23 44.7899 92.316C44.3559 91.395 43.7239 90.743 42.8949 90.359C42.0739 89.967 41.0789 89.772 39.9109 89.772H37.0679V102.392Z" fill="#F3F4FA"></path><path d="M49.738 98.3848C49.738 97.0798 49.987 95.9548 50.484 95.0108C50.989 94.0588 51.704 93.3298 52.628 92.8228C53.559 92.3088 54.665 92.0518 55.944 92.0518C57.223 92.0518 58.297 92.3008 59.165 92.7998C60.041 93.2908 60.701 93.9708 61.143 94.8378C61.593 95.7058 61.818 96.6958 61.818 97.8088V98.9598H51.893C51.98 100.158 52.351 101.118 53.007 101.839C53.67 102.561 54.665 102.922 55.991 102.922C57.144 102.922 57.996 102.699 58.549 102.254C59.102 101.808 59.465 101.248 59.639 100.572H61.865C61.778 101.025 61.605 101.494 61.344 101.977C61.084 102.461 60.72 102.91 60.255 103.325C59.797 103.739 59.216 104.077 58.514 104.338C57.811 104.591 56.97 104.718 55.991 104.718C53.994 104.718 52.45 104.154 51.36 103.025C50.279 101.889 49.738 100.342 49.738 98.3848ZM51.941 97.2328H59.686C59.639 96.2278 59.315 95.4138 58.715 94.7918C58.115 94.1628 57.191 93.8478 55.944 93.8478C54.823 93.8478 53.907 94.1358 53.196 94.7108C52.493 95.2868 52.075 96.1278 51.941 97.2328Z" fill="#F3F4FA"></path><path d="M63.051 92.858V92.397H65.207L68.736 102.461C68.775 102.584 68.854 102.645 68.973 102.645C69.091 102.645 69.17 102.584 69.21 102.461L72.739 92.397H74.894V92.858L70.773 104.372H67.173L63.051 92.858Z" fill="#F3F4FA"></path><path d="M76.1069 98.3848C76.1069 97.0798 76.3559 95.9548 76.8529 95.0108C77.3589 94.0588 78.0729 93.3298 78.9969 92.8228C79.9289 92.3088 81.0339 92.0518 82.3129 92.0518C83.5919 92.0518 84.6659 92.3008 85.5339 92.7998C86.4109 93.2908 87.0699 93.9708 87.5119 94.8378C87.9619 95.7058 88.187 96.6958 88.187 97.8088V98.9598H78.2629C78.3489 100.158 78.7209 101.118 79.3759 101.839C80.0389 102.561 81.0339 102.922 82.3599 102.922C83.5129 102.922 84.3659 102.699 84.9179 102.254C85.4709 101.808 85.8339 101.248 86.0079 100.572H88.2339C88.1479 101.025 87.974 101.494 87.713 101.977C87.453 102.461 87.0899 102.91 86.6239 103.325C86.1659 103.739 85.5859 104.077 84.8829 104.338C84.1799 104.591 83.3389 104.718 82.3599 104.718C80.3629 104.718 78.8189 104.154 77.7299 103.025C76.6479 101.889 76.1069 100.342 76.1069 98.3848ZM78.3099 97.2328H86.0549C86.0079 96.2278 85.684 95.4138 85.084 94.7918C84.484 94.1628 83.5599 93.8478 82.3129 93.8478C81.1919 93.8478 80.2759 94.1358 79.5649 94.7108C78.8629 95.2868 78.4439 96.1278 78.3099 97.2328Z" fill="#F3F4FA"></path><path d="M89.175 104.372V103.912L93.817 98.2L89.5061 92.858V92.397H91.7211L95.1081 96.715C95.1711 96.792 95.2461 96.83 95.3331 96.83C95.4201 96.83 95.4951 96.792 95.5581 96.715L98.981 92.397H101.183V92.881L96.6591 98.454L101.065 103.912V104.372H98.8381L95.3681 99.939C95.3051 99.862 95.2301 99.824 95.1431 99.824C95.0571 99.824 94.9821 99.862 94.9181 99.939L91.4011 104.372H89.175Z" fill="#F3F4FA"></path><path d="M116.507 98.3848C116.507 99.4748 116.334 100.419 115.986 101.217C115.639 102.016 115.173 102.676 114.589 103.198C114.012 103.712 113.365 104.096 112.646 104.349C111.928 104.595 111.194 104.718 110.444 104.718C109.583 104.718 108.805 104.583 108.111 104.315C107.424 104.046 106.843 103.62 106.37 103.037C106.291 102.929 106.204 102.875 106.109 102.875C105.999 102.875 105.943 102.937 105.943 103.06V108.748H103.812V92.3968H105.92V93.7328C105.92 93.8548 105.975 93.9168 106.085 93.9168C106.18 93.9168 106.267 93.8628 106.346 93.7558C106.835 93.1568 107.424 92.7228 108.111 92.4548C108.805 92.1858 109.583 92.0518 110.444 92.0518C111.194 92.0518 111.928 92.1778 112.646 92.4308C113.365 92.6768 114.012 93.0607 114.589 93.5827C115.173 94.0967 115.639 94.7538 115.986 95.5518C116.334 96.3428 116.507 97.2868 116.507 98.3848ZM114.352 98.3848C114.352 96.9408 113.953 95.8318 113.156 95.0568C112.358 94.2818 111.336 93.8938 110.088 93.8938C108.849 93.8938 107.826 94.2818 107.021 95.0568C106.224 95.8318 105.825 96.9408 105.825 98.3848C105.825 99.8198 106.224 100.929 107.021 101.712C107.826 102.488 108.849 102.875 110.088 102.875C111.336 102.875 112.358 102.488 113.156 101.712C113.953 100.929 114.352 99.8198 114.352 98.3848Z" fill="#F3F4FA"></path><path d="M118.391 98.3848C118.391 97.0798 118.639 95.9548 119.137 95.0108C119.642 94.0588 120.356 93.3298 121.28 92.8228C122.212 92.3088 123.317 92.0518 124.596 92.0518C125.875 92.0518 126.949 92.3008 127.818 92.7998C128.694 93.2908 129.353 93.9708 129.795 94.8378C130.245 95.7058 130.47 96.6958 130.47 97.8088V98.9598H120.546C120.633 100.158 121.004 101.118 121.659 101.839C122.322 102.561 123.317 102.922 124.644 102.922C125.796 102.922 126.649 102.699 127.202 102.254C127.754 101.808 128.118 101.248 128.291 100.572H130.518C130.431 101.025 130.257 101.494 129.997 101.977C129.736 102.461 129.373 102.91 128.907 103.325C128.449 103.739 127.869 104.077 127.166 104.338C126.464 104.591 125.623 104.718 124.644 104.718C122.646 104.718 121.103 104.154 120.013 103.025C118.931 101.889 118.391 100.342 118.391 98.3848ZM120.593 97.2328H128.339C128.291 96.2278 127.968 95.4138 127.368 94.7918C126.767 94.1628 125.844 93.8478 124.596 93.8478C123.475 93.8478 122.559 94.1358 121.849 94.7108C121.146 95.2868 120.728 96.1278 120.593 97.2328Z" fill="#F3F4FA"></path><path d="M133.095 104.372V92.3971H135.227V94.0091C135.227 94.1161 135.282 94.1701 135.393 94.1701C135.503 94.1701 135.582 94.1091 135.63 93.9861C135.906 93.4101 136.277 92.9961 136.743 92.7421C137.217 92.4811 137.872 92.3511 138.709 92.3511H140.083V94.3781H138.377C137.351 94.3781 136.569 94.6231 136.032 95.1141C135.495 95.6061 135.227 96.4271 135.227 97.5791V104.372H133.095Z" fill="#F3F4FA"></path><path d="M140.955 94.2388V92.3969H143.797V89.1729H145.929V92.3969H149.482V94.2388H145.929V102.185C145.929 102.292 145.96 102.376 146.023 102.438C146.087 102.499 146.173 102.53 146.284 102.53H149.482V104.372H147.35C144.981 104.372 143.797 103.221 143.797 100.918V94.2388H140.955Z" fill="#F3F4FA"></path><path d="M156.307 92.0518C157.279 92.0518 158.163 92.1938 158.96 92.4778C159.758 92.7618 160.405 93.2108 160.903 93.8248C161.408 94.4308 161.7 95.2218 161.779 96.1968H159.6C159.521 95.3748 159.201 94.7768 158.641 94.4008C158.08 94.0168 157.302 93.8248 156.307 93.8248C155.313 93.8248 154.594 93.9898 154.152 94.3198C153.71 94.6418 153.489 95.0528 153.489 95.5518C153.489 96.0428 153.682 96.4038 154.069 96.6338C154.456 96.8568 155.068 97.0448 155.905 97.1988L157.658 97.5208C158.408 97.6588 159.102 97.8508 159.742 98.0968C160.381 98.3348 160.895 98.6838 161.282 99.1448C161.676 99.6048 161.874 100.231 161.874 101.022C161.874 102.204 161.428 103.117 160.535 103.762C159.651 104.399 158.416 104.718 156.829 104.718C155.771 104.718 154.819 104.568 153.974 104.269C153.13 103.969 152.451 103.513 151.937 102.898C151.424 102.284 151.128 101.509 151.049 100.572H153.216C153.311 101.34 153.678 101.927 154.318 102.334C154.965 102.741 155.802 102.945 156.829 102.945C157.863 102.945 158.605 102.772 159.055 102.426C159.513 102.081 159.742 101.651 159.742 101.137C159.742 100.615 159.529 100.239 159.102 100.008C158.676 99.7778 158.037 99.5858 157.184 99.4328L155.431 99.1098C154.634 98.9638 153.927 98.7648 153.311 98.5108C152.695 98.2498 152.214 97.8898 151.866 97.4288C151.527 96.9608 151.357 96.3428 151.357 95.5748C151.357 94.4238 151.819 93.5478 152.743 92.9498C153.666 92.3508 154.855 92.0518 156.307 92.0518Z" fill="#F3F4FA"></path><path d="M43.839 0V18.408H54.895L54.912 55.224L43.839 55.225V73.633H58.316C71.398 73.633 77.284 67.845 77.284 54.77V19.09C77.284 5.983 71.384 0 58.302 0H43.839ZM32.089 0H0V73.633H32.089V55.226L21.016 55.225V18.408H32.089V0Z" fill="url(#paint0_linear_526_134)"></path><path d="M83.6111 0L129.71 73.633H157.731L111.632 0H83.6111Z" fill="url(#paint1_linear_526_134)"></path><path d="M84.063 73.633H116.603L100.333 47.498L84.063 73.633Z" fill="url(#paint2_linear_526_134)"></path><path d="M158.183 0H125.642L141.913 25.908L158.183 0Z" fill="url(#paint3_linear_526_134)"></path><path d="M173.547 22.236V11.207H180.1V22.343H191.625V28.479H180.1V54.073C180.1 54.423 180.23 54.662 180.439 54.872C180.649 55.082 180.881 55.296 181.23 55.296H191.625V60.977H184.548C177.109 60.977 173.547 57.514 173.547 50.061V22.236Z" fill="#F3F4FA"></path><path d="M197.953 22.3422H204.506V27.3422C204.506 27.6922 204.67 27.9922 205.053 27.9922C205.401 27.9922 205.61 27.7652 205.784 27.3972C207.454 23.7252 210.168 22.1152 215.353 22.1152H219.647V28.7062H214.223C207.854 28.7062 204.506 31.5882 204.506 38.9332V60.9772H197.953V22.3422Z" fill="#F3F4FA"></path><path d="M329.568 21.6602C341.536 21.6602 348.003 28.9561 348.003 39.6241V43.4772H317.078C317.605 51.1372 321.461 56.2771 329.744 56.2771C336.904 56.2771 340.103 53.0761 341.191 48.7041H348.004C346.88 54.5101 341.86 62.1132 329.682 62.1132C317.503 62.1132 310.266 54.2842 310.266 41.7982C310.266 29.3122 317.6 21.6602 329.568 21.6602ZM341.457 38.0432C341.176 31.6422 337.322 27.3421 329.566 27.3421C322.581 27.3421 317.841 30.9782 317.033 38.0432H341.492H341.457Z" fill="#F3F4FA"></path><path d="M253.54 22.3422V27.0081C253.54 27.3941 253.492 27.6111 253.107 27.6111C252.721 27.6111 252.511 27.4012 252.301 27.0862C249.218 23.4052 244.924 21.6602 239.529 21.6602C230.246 21.6602 220.773 27.9022 220.773 41.8862C220.773 55.8712 230.246 62.1132 239.529 62.1132C244.924 62.1132 249.183 60.5222 252.371 56.7372C252.581 56.4572 252.826 56.2112 253.177 56.2112C253.527 56.2112 253.766 56.5002 253.766 56.8862V60.9762H260.319V22.3422H253.54ZM240.742 56.4472C233.001 56.4472 227.531 51.0921 227.531 41.8741C227.531 32.6571 232.999 27.6111 240.741 27.6111C248.483 27.6111 254.093 32.7392 254.093 41.9572C254.093 51.1752 248.484 56.4472 240.742 56.4472Z" fill="#F3F4FA"></path><path d="M298.509 11.207V27.009C298.509 27.395 298.461 27.612 298.075 27.612C297.69 27.612 297.48 27.402 297.27 27.086C294.187 23.406 289.893 21.661 284.498 21.661C275.215 21.661 265.742 27.903 265.742 41.887C265.742 55.872 275.215 62.113 284.498 62.113C289.893 62.113 294.152 60.523 297.34 56.738C297.55 56.457 297.795 56.212 298.146 56.212C298.496 56.212 298.735 56.501 298.735 56.886V60.977H305.288V11.207H298.509ZM285.711 56.448C277.969 56.448 272.5 51.093 272.5 41.875C272.5 32.657 277.968 27.612 285.71 27.612C293.451 27.612 299.062 32.74 299.062 41.958C299.062 51.176 293.453 56.448 285.711 56.448Z" fill="#F3F4FA"></path><defs><linearGradient id="paint0_linear_526_134" x1="-401.386" y1="-134.216" x2="-365.082" y2="162.136" gradientUnits="userSpaceOnUse"><stop offset="0.71" stop-color="#2BB673"></stop><stop offset="0.91" stop-color="#345BAA"></stop></linearGradient><linearGradient id="paint1_linear_526_134" x1="-401.386" y1="-134.216" x2="-365.082" y2="162.136" gradientUnits="userSpaceOnUse"><stop offset="0.71" stop-color="#2BB673"></stop><stop offset="0.91" stop-color="#345BAA"></stop></linearGradient><linearGradient id="paint2_linear_526_134" x1="-401.386" y1="-134.216" x2="-365.082" y2="162.136" gradientUnits="userSpaceOnUse"><stop offset="0.71" stop-color="#2BB673"></stop><stop offset="0.91" stop-color="#345BAA"></stop></linearGradient><linearGradient id="paint3_linear_526_134" x1="-401.386" y1="-134.216" x2="-365.082" y2="162.136" gradientUnits="userSpaceOnUse"><stop offset="0.71" stop-color="#2BB673"></stop><stop offset="0.91" stop-color="#345BAA"></stop></linearGradient></defs></svg>