<svg xmlns="http://www.w3.org/2000/svg" viewBox="0 0 175.47 23.66"><defs><style>.cls-1{fill:#535ee0;fill-rule:evenodd;}.cls-2{fill:#fff;}</style></defs><g id="Layer_2" data-name="Layer 2"><g id="Layer_1-2" data-name="Layer 1"><path class="cls-1" d="M10.35,0,0,5.92V17.75l2,1.12V7.06l8.38-4.79,8.38,4.79V16.6l-8.38,4.79L5.92,18.86V9.35l4.43-2.54,4.44,2.54v5l-4.44,2.54-.49-.28V11.64l2.48-1.42-2-1.14L7.89,10.49v7.22l2.46,1.41,6.41-3.66V8.2L10.35,4.54,3.94,8.2V20l6.41,3.66,10.36-5.91V5.92Z"></path><path class="cls-2" d="M27,1.86h3.86l3.71,7h.16l3.72-7h3.85L36.37,12.39v5.76H33V12.39Z"></path><path class="cls-2" d="M47.11,18.39a6.27,6.27,0,0,1-3.2-.79,5.41,5.41,0,0,1-2.08-2.21,7.1,7.1,0,0,1-.73-3.3,7.11,7.11,0,0,1,.73-3.31,5.35,5.35,0,0,1,2.08-2.21,6.88,6.88,0,0,1,6.4,0,5.35,5.35,0,0,1,2.08,2.21,7.11,7.11,0,0,1,.73,3.31,7.1,7.1,0,0,1-.73,3.3,5.41,5.41,0,0,1-2.08,2.21A6.3,6.3,0,0,1,47.11,18.39Zm0-2.63a2.08,2.08,0,0,0,1.41-.48A3,3,0,0,0,49.39,14a5.88,5.88,0,0,0,.29-1.9,5.83,5.83,0,0,0-.29-1.9,3,3,0,0,0-.86-1.32,2,2,0,0,0-1.41-.49,2.1,2.1,0,0,0-1.42.49,2.84,2.84,0,0,0-.87,1.32,5.83,5.83,0,0,0-.29,1.9,5.88,5.88,0,0,0,.29,1.9,2.86,2.86,0,0,0,.87,1.31A2.14,2.14,0,0,0,47.12,15.76Z"></path><path class="cls-2" d="M63.16,13v-7h3.39V18.15H63.3V15.93h-.13a3.64,3.64,0,0,1-1.37,1.73,4.47,4.47,0,0,1-4.49.09,3.83,3.83,0,0,1-1.45-1.58,5.45,5.45,0,0,1-.53-2.46V5.94h3.39v7.17a2.46,2.46,0,0,0,.58,1.71,2,2,0,0,0,1.53.63A2.42,2.42,0,0,0,62,15.16a2.14,2.14,0,0,0,.86-.83A2.59,2.59,0,0,0,63.16,13Z"></path><path class="cls-2" d="M69.25,18.15V5.94h3.29V8.07h.12a3.23,3.23,0,0,1,1.12-1.72,3,3,0,0,1,1.82-.59l.55,0a3.35,3.35,0,0,1,.51.09v3A4.5,4.5,0,0,0,76,8.76a5.4,5.4,0,0,0-.77-.06A2.65,2.65,0,0,0,73.9,9a2.32,2.32,0,0,0-.92.89,2.5,2.5,0,0,0-.34,1.32v6.91Z"></path><path class="cls-2" d="M78.47,18.15V1.86h6.42a6.56,6.56,0,0,1,3.16.71,4.86,4.86,0,0,1,2,1.95,5.79,5.79,0,0,1,.69,2.86,5.73,5.73,0,0,1-.7,2.87,4.89,4.89,0,0,1-2,1.93,6.87,6.87,0,0,1-3.2.69h-4.1V10.11h3.54a3.35,3.35,0,0,0,1.64-.35,2.25,2.25,0,0,0,1-1,3,3,0,0,0,.32-1.42A3,3,0,0,0,86.86,6a2.21,2.21,0,0,0-1-.94,3.55,3.55,0,0,0-1.66-.34H81.91V18.15Z"></path><path class="cls-2" d="M92.91,18.15V5.94h3.28V8.07h.13a3.17,3.17,0,0,1,1.12-1.72,3,3,0,0,1,1.81-.59l.55,0a3.28,3.28,0,0,1,.52.09v3a4.5,4.5,0,0,0-.66-.13,5.52,5.52,0,0,0-.77-.06A2.62,2.62,0,0,0,97.56,9a2.41,2.41,0,0,0-.93.89,2.59,2.59,0,0,0-.33,1.32v6.91Z"></path><path class="cls-2" d="M107,18.39a6.25,6.25,0,0,1-3.2-.79,5.43,5.43,0,0,1-2.09-2.21,7.23,7.23,0,0,1-.73-3.3,7.24,7.24,0,0,1,.73-3.31,5.37,5.37,0,0,1,2.09-2.21,6.88,6.88,0,0,1,6.4,0,5.32,5.32,0,0,1,2.07,2.21,7.11,7.11,0,0,1,.74,3.31,7.1,7.1,0,0,1-.74,3.3,5.38,5.38,0,0,1-2.07,2.21A6.3,6.3,0,0,1,107,18.39Zm0-2.63a2.11,2.11,0,0,0,1.41-.48,2.9,2.9,0,0,0,.85-1.31,5.62,5.62,0,0,0,.29-1.9,5.58,5.58,0,0,0-.29-1.9,2.88,2.88,0,0,0-.85-1.32A2.07,2.07,0,0,0,107,8.36a2.12,2.12,0,0,0-1.43.49,2.9,2.9,0,0,0-.86,1.32,5.58,5.58,0,0,0-.29,1.9,5.62,5.62,0,0,0,.29,1.9,2.92,2.92,0,0,0,.86,1.31A2.17,2.17,0,0,0,107,15.76Z"></path><path class="cls-2" d="M115.23,22.73V5.94h3.34V8h.15a4.29,4.29,0,0,1,.65-1,3.36,3.36,0,0,1,1.11-.86,3.8,3.8,0,0,1,1.71-.34,4.68,4.68,0,0,1,2.47.69,4.9,4.9,0,0,1,1.8,2.09,8,8,0,0,1,.68,3.5,8.1,8.1,0,0,1-.66,3.45,4.87,4.87,0,0,1-1.78,2.12,4.58,4.58,0,0,1-2.52.72,3.86,3.86,0,0,1-1.67-.33,3.43,3.43,0,0,1-1.12-.82,3.77,3.77,0,0,1-.67-1h-.11v6.54ZM118.54,12a5.22,5.22,0,0,0,.31,1.9,2.79,2.79,0,0,0,.87,1.26,2.17,2.17,0,0,0,1.39.45,2.2,2.2,0,0,0,1.4-.45,2.86,2.86,0,0,0,.87-1.28,5.41,5.41,0,0,0,.3-1.88,5.59,5.59,0,0,0-.29-1.86,2.82,2.82,0,0,0-.87-1.25,2.15,2.15,0,0,0-1.41-.46,2.2,2.2,0,0,0-1.39.44,2.68,2.68,0,0,0-.87,1.24A5.2,5.2,0,0,0,118.54,12Z"></path><path class="cls-2" d="M129.45,18.15V1.86h10.78V4.7h-7.34V8.58h6.63v2.84h-6.63v6.73Z"></path><path class="cls-2" d="M144.19,4.36a1.85,1.85,0,0,1-1.3-.5,1.65,1.65,0,0,1,0-2.42,1.9,1.9,0,0,1,2.59,0,1.59,1.59,0,0,1,.53,1.2,1.6,1.6,0,0,1-.53,1.22A1.85,1.85,0,0,1,144.19,4.36Zm-1.71,13.79V5.94h3.39V18.15Z"></path><path class="cls-2" d="M148.57,18.15V5.94h3.29V8.07H152a3.12,3.12,0,0,1,1.12-1.72,3,3,0,0,1,1.81-.59l.55,0a3.5,3.5,0,0,1,.52.09v3a4.5,4.5,0,0,0-.66-.13,5.65,5.65,0,0,0-.78-.06,2.68,2.68,0,0,0-1.33.33,2.32,2.32,0,0,0-.92.89,2.5,2.5,0,0,0-.34,1.32v6.91Z"></path><path class="cls-2" d="M157.73,18.15V5.94H161V8.09h.15a3.38,3.38,0,0,1,1.27-1.69,3.57,3.57,0,0,1,2.13-.62,3.65,3.65,0,0,1,2.14.62,3,3,0,0,1,1.18,1.69h.12a3.24,3.24,0,0,1,1.36-1.68,4.21,4.21,0,0,1,2.33-.63,3.73,3.73,0,0,1,2.77,1.08,4.18,4.18,0,0,1,1.07,3.08v8.21h-3.38V10.6a2,2,0,0,0-.54-1.52,1.89,1.89,0,0,0-1.35-.51,1.83,1.83,0,0,0-1.44.58,2.25,2.25,0,0,0-.51,1.54v7.46H165V10.53a2,2,0,0,0-.51-1.43,1.8,1.8,0,0,0-1.35-.53,1.83,1.83,0,0,0-1,.28,2,2,0,0,0-.71.79,2.45,2.45,0,0,0-.27,1.18v7.33Z"></path></g></g></svg>