<svg xmlns="http://www.w3.org/2000/svg" width="269" height="165" viewBox="0 0 269 165" fill="none"><g clip-path="url(#clip0_526_61)"><path d="M0 161.64V148.77H4.75C6.65 148.77 7.59 149.82 7.59 151.91V153.73C7.59 155.75 6.64 156.76 4.75 156.76H1.43V161.64H0ZM6.15 151.94C6.15 150.81 5.68 150.25 4.74 150.25H1.43V155.41H4.73C5.67 155.41 6.14 154.85 6.14 153.74V151.94H6.15Z" fill="white"></path><path d="M11.53 161.64C10.92 161.64 10.42 161.59 10.02 161.48C9.62997 161.37 9.31997 161.19 9.07997 160.95C8.84997 160.71 8.68997 160.38 8.59997 159.97C8.50997 159.56 8.46997 159.05 8.46997 158.46V155.43C8.46997 154.81 8.51997 154.29 8.61997 153.87C8.71997 153.45 8.88997 153.13 9.12997 152.89C9.36997 152.65 9.67997 152.48 10.08 152.38C10.47 152.28 10.95 152.23 11.53 152.23H12.85C13.45 152.23 13.95 152.28 14.35 152.39C14.75 152.5 15.06 152.68 15.29 152.93C15.52 153.18 15.68 153.51 15.77 153.91C15.86 154.31 15.91 154.82 15.91 155.42V158.45C15.91 159.53 15.73 160.33 15.37 160.85C15.01 161.38 14.35 161.64 13.4 161.64H11.55H11.53ZM14.52 155.18C14.52 154.69 14.43 154.31 14.25 154.05C14.07 153.79 13.76 153.66 13.33 153.66H11.04C10.26 153.66 9.85997 154.09 9.85997 154.96V158.7C9.85997 159.18 9.94997 159.55 10.13 159.82C10.31 160.09 10.61 160.22 11.04 160.22H13.33C14.12 160.22 14.52 159.79 14.52 158.92V155.18Z" fill="white"></path><path d="M24.15 161.64L22.21 154.3L20.26 161.64H18.94L16.24 152.22H17.67L19.65 159.69L21.61 152.22H22.89L24.87 159.69L26.85 152.22H28.23L25.53 161.64H24.13H24.15Z" fill="white"></path><path d="M31.46 161.64C29.63 161.64 28.71 160.66 28.71 158.68V155.17C28.71 153.2 29.63 152.21 31.46 152.21H33.13C34.98 152.21 35.9 153.19 35.9 155.17V157.5H30.05V158.64C30.05 159.69 30.52 160.22 31.46 160.22H35.65V161.63H31.46V161.64ZM34.58 155.15C34.58 154.1 34.1 153.57 33.15 153.57H31.46C30.52 153.57 30.05 154.1 30.05 155.15V156.31H34.58V155.15Z" fill="white"></path><path d="M37.1799 161.64V152.22H38.4999V153.38C38.6699 152.95 38.9099 152.65 39.2099 152.48C39.5099 152.31 39.9199 152.22 40.4499 152.22H42.3799V153.65H39.8499C39.3699 153.65 39.0399 153.78 38.8499 154.03C38.6599 154.28 38.5699 154.68 38.5699 155.21V161.63H37.1899L37.1799 161.64Z" fill="white"></path><path d="M45.79 161.64C43.95 161.64 43.04 160.66 43.04 158.68V155.17C43.04 153.2 43.96 152.21 45.79 152.21H47.46C49.31 152.21 50.23 153.19 50.23 155.17V157.5H44.37V158.64C44.37 159.69 44.84 160.22 45.78 160.22H49.96V161.63H45.78L45.79 161.64ZM48.91 155.15C48.91 154.1 48.43 153.57 47.48 153.57H45.79C44.85 153.57 44.38 154.1 44.38 155.15V156.31H48.91V155.15Z" fill="white"></path><path d="M54.1799 161.64C52.3499 161.64 51.4299 160.66 51.4299 158.68V155.17C51.4299 153.2 52.3499 152.21 54.1799 152.21H57.2099V148.76H58.5999V161.63H54.1799V161.64ZM57.2099 153.66H54.2399C53.2899 153.66 52.8099 154.19 52.8099 155.24V158.65C52.8099 159.7 53.2899 160.23 54.2399 160.23H57.2099V153.66Z" fill="white"></path><path d="M63.0801 161.64V148.77H64.4601V152.22H67.5101C69.3401 152.22 70.2601 153.2 70.2601 155.18V158.69C70.2601 160.66 69.3401 161.65 67.5101 161.65H63.0901L63.0801 161.64ZM68.8801 155.24C68.8801 154.19 68.4001 153.66 67.4501 153.66H64.4601V160.23H67.4501C68.4001 160.23 68.8801 159.7 68.8801 158.65V155.24Z" fill="white"></path><path d="M73.16 164.56V163.26H75.82C76.73 163.26 77.18 162.7 77.18 161.59V160.82H74.24C72.4 160.82 71.49 159.86 71.49 157.94V152.23H72.87V157.99C72.87 159.02 73.35 159.53 74.3 159.53H77.18V152.23H78.57V161.54C78.57 163.56 77.7 164.57 75.95 164.57H73.16V164.56Z" fill="white"></path><path d="M91.29 161.64V152.96L89.42 161.64H87.16L85.31 152.92V161.64H83.25V148.77H86.21L88.36 159.18L90.47 148.77H93.31V161.64H91.29Z" fill="white"></path><path d="M97.0499 161.639C95.4599 161.639 94.6699 160.789 94.6699 159.089V158.169C94.6699 156.699 95.4699 155.969 97.0699 155.969H100.06V155.439C100.06 154.789 99.7699 154.469 99.1799 154.469H95.2299V152.229H99.1799C101.16 152.229 102.15 153.279 102.15 155.369V161.649H97.0499V161.639ZM100.06 157.66H97.3599C96.9199 157.66 96.6999 157.9 96.6999 158.38V158.929C96.6999 159.359 96.9199 159.57 97.3599 159.57H100.06V157.66Z" fill="white"></path><path d="M106.52 161.64C104.62 161.64 103.67 160.58 103.67 158.45V149.02H105.87V152.23H107.83V154.1H105.87V158.52C105.87 159.24 106.16 159.6 106.73 159.6H107.8V161.64H106.52Z" fill="white"></path><path d="M112.16 161.639C110.16 161.639 109.17 160.589 109.17 158.499V155.399C109.17 153.279 110.17 152.229 112.16 152.229H115.44V154.469H112.21C111.63 154.469 111.35 154.809 111.35 155.479V158.449C111.35 159.099 111.64 159.419 112.21 159.419H115.48V161.639H112.16Z" fill="white"></path><path d="M122.54 161.64V155.44C122.54 154.79 122.29 154.47 121.79 154.47H120.03C119.46 154.47 119.17 154.8 119.17 155.46V161.64H117V148.77H119.17V153.25C119.4 152.85 119.66 152.57 119.93 152.43C120.21 152.29 120.61 152.22 121.13 152.22H122.38C123.93 152.22 124.71 153.24 124.71 155.28V161.63H122.54V161.64Z" fill="white"></path><path d="M125.96 156.119V154.649H131.48V156.119H125.96Z" fill="white"></path><path d="M133.26 161.639V151.089H130.69V148.779H138.1V151.089H135.49V161.639H133.25H133.26Z" fill="white"></path><path d="M138.23 161.64V152.22H140.32V153.25C140.54 152.85 140.79 152.57 141.08 152.43C141.37 152.29 141.77 152.22 142.28 152.22H143.75V154.46H141.25C140.67 154.46 140.39 154.79 140.39 155.45V161.63H138.22L138.23 161.64Z" fill="white"></path><path d="M146.95 161.639C145.36 161.639 144.56 160.789 144.56 159.089V158.169C144.56 156.699 145.36 155.969 146.96 155.969H149.95V155.439C149.95 154.789 149.66 154.469 149.07 154.469H145.12V152.229H149.07C151.05 152.229 152.04 153.279 152.04 155.369V161.649H146.94L146.95 161.639ZM149.96 157.66H147.26C146.82 157.66 146.6 157.9 146.6 158.38V158.929C146.6 159.359 146.82 159.57 147.26 159.57H149.96V157.66Z" fill="white"></path><path d="M156.53 161.64C154.54 161.64 153.54 160.59 153.54 158.5V155.36C153.54 153.27 154.54 152.22 156.53 152.22H158.79V148.77H160.97V161.64H156.53ZM158.79 154.47H156.61C156.02 154.47 155.73 154.79 155.73 155.44V158.45C155.73 159.1 156.02 159.42 156.61 159.42H158.79V154.46V154.47Z" fill="white"></path><path d="M165.49 161.64C163.49 161.64 162.5 160.59 162.5 158.5V155.36C162.5 153.27 163.5 152.22 165.49 152.22H166.96C168.95 152.22 169.95 153.27 169.95 155.36V157.78H164.63V158.44C164.63 159.09 164.92 159.41 165.49 159.41H169.69V161.63H165.49V161.64ZM167.87 155.31C167.87 154.65 167.58 154.32 166.99 154.32H165.49C164.91 154.32 164.63 154.65 164.63 155.31V156.08H167.88V155.31H167.87Z" fill="white"></path><path d="M177.29 161.639V151.089H174.72V148.779H182.13V151.089H179.52V161.639H177.28H177.29Z" fill="white"></path><path d="M185.27 161.64C183.28 161.64 182.28 160.59 182.28 158.5V155.36C182.28 153.27 183.28 152.22 185.27 152.22H186.74C188.73 152.22 189.73 153.27 189.73 155.36V157.78H184.41V158.44C184.41 159.09 184.7 159.41 185.27 159.41H189.47V161.63H185.27V161.64ZM187.66 155.31C187.66 154.65 187.37 154.32 186.78 154.32H185.27C184.7 154.32 184.41 154.65 184.41 155.31V156.08H187.66V155.31Z" fill="white"></path><path d="M194.17 161.639C192.18 161.639 191.18 160.589 191.18 158.499V155.399C191.18 153.279 192.18 152.229 194.17 152.229H197.46V154.469H194.23C193.66 154.469 193.37 154.809 193.37 155.479V158.449C193.37 159.099 193.66 159.419 194.23 159.419H197.5V161.639H194.18H194.17Z" fill="white"></path><path d="M204.56 161.64V155.44C204.56 154.79 204.31 154.47 203.81 154.47H202.05C201.47 154.47 201.19 154.8 201.19 155.46V161.64H199.02V148.77H201.19V153.25C201.42 152.85 201.68 152.57 201.95 152.43C202.22 152.29 202.63 152.22 203.15 152.22H204.4C205.95 152.22 206.73 153.24 206.73 155.28V161.63H204.56V161.64Z" fill="white"></path><path d="M213.89 161.64V155.44C213.89 154.79 213.64 154.47 213.14 154.47H211.32C210.74 154.47 210.46 154.8 210.46 155.46V161.64H208.29V152.22H210.38V153.25C210.6 152.85 210.85 152.57 211.14 152.43C211.43 152.29 211.83 152.22 212.34 152.22H213.7C215.25 152.22 216.03 153.24 216.03 155.28V161.63H213.88L213.89 161.64Z" fill="white"></path><path d="M220.6 161.639C219.5 161.639 218.71 161.379 218.23 160.869C217.75 160.359 217.51 159.539 217.51 158.429V155.439C217.51 154.299 217.76 153.479 218.24 152.979C218.72 152.479 219.51 152.229 220.59 152.229H222.11C223.21 152.229 224 152.48 224.48 152.99C224.96 153.5 225.2 154.309 225.2 155.439V158.429C225.2 159.509 224.97 160.309 224.5 160.839C224.03 161.369 223.3 161.639 222.3 161.639H220.59H220.6ZM223.03 155.419C223.03 154.779 222.76 154.469 222.22 154.469H220.49C219.96 154.469 219.7 154.76 219.7 155.35V158.469C219.7 158.779 219.76 159.009 219.88 159.179C220 159.349 220.2 159.429 220.49 159.429H222.22C222.76 159.429 223.03 159.139 223.03 158.549V155.429V155.419Z" fill="white"></path><path d="M226.73 161.64V148.77H228.91V161.64H226.73Z" fill="white"></path><path d="M233.54 161.639C232.44 161.639 231.65 161.379 231.17 160.869C230.69 160.359 230.45 159.539 230.45 158.429V155.439C230.45 154.299 230.69 153.479 231.18 152.979C231.67 152.479 232.45 152.229 233.53 152.229H235.05C236.15 152.229 236.94 152.48 237.42 152.99C237.9 153.5 238.14 154.309 238.14 155.439V158.429C238.14 159.509 237.91 160.309 237.44 160.839C236.97 161.369 236.24 161.639 235.24 161.639H233.53H233.54ZM235.96 155.419C235.96 154.779 235.69 154.469 235.15 154.469H233.42C232.89 154.469 232.63 154.76 232.63 155.35V158.469C232.63 158.779 232.69 159.009 232.81 159.179C232.93 159.349 233.13 159.429 233.42 159.429H235.15C235.69 159.429 235.96 159.139 235.96 158.549V155.429V155.419Z" fill="white"></path><path d="M241.21 164.559V162.499H244C244.57 162.499 244.86 162.139 244.86 161.439V160.63H242.57C240.58 160.63 239.58 159.61 239.58 157.57V155.369C239.58 153.279 240.58 152.229 242.57 152.229H247.05V161.35C247.05 163.49 246.1 164.559 244.2 164.559H241.21ZM244.87 154.469H242.65C242.06 154.469 241.77 154.789 241.77 155.439V157.66C241.77 158.3 242.06 158.609 242.65 158.609H244.87V154.46V154.469Z" fill="white"></path><path d="M248.76 150.979V148.779H250.96V150.979H248.76ZM248.76 161.639V152.219H250.96V161.639H248.76Z" fill="white"></path><path d="M255.57 161.64C253.58 161.64 252.58 160.59 252.58 158.5V155.36C252.58 153.27 253.58 152.22 255.57 152.22H257.04C259.03 152.22 260.03 153.27 260.03 155.36V157.78H254.71V158.44C254.71 159.09 255 159.41 255.57 159.41H259.77V161.63H255.57V161.64ZM257.95 155.31C257.95 154.65 257.66 154.32 257.07 154.32H255.56C254.99 154.32 254.7 154.65 254.7 155.31V156.08H257.95V155.31Z" fill="white"></path><path d="M261.53 161.639V159.419H266.21C266.67 159.419 266.91 159.199 266.91 158.759V158.429C266.91 157.989 266.68 157.77 266.21 157.77H264.04C263.12 157.77 262.43 157.589 261.98 157.229C261.53 156.869 261.29 156.29 261.29 155.49V154.979C261.29 154.009 261.52 153.31 261.99 152.88C262.45 152.45 263.16 152.229 264.1 152.229H268.54V154.469H264.01C263.57 154.469 263.35 154.69 263.35 155.13V155.289C263.35 155.769 263.59 156.009 264.07 156.009H266.29C267.17 156.009 267.84 156.189 268.31 156.549C268.77 156.909 269.01 157.479 269.01 158.249V158.859C269.01 160.719 268.1 161.649 266.29 161.649H261.54L261.53 161.639Z" fill="white"></path><path d="M133.98 81.7602C135.08 81.5302 136.15 81.2002 137.18 80.7602C138.21 80.3302 139.18 79.8002 140.05 79.2002C140.83 78.6902 141.55 78.0802 142.24 77.4402C150.39 72.7502 157.12 72.5002 177.99 72.4202C179.86 74.2602 182.42 75.4002 185.25 75.4002C190.96 75.4002 195.6 70.7602 195.6 65.0402C195.6 62.2702 194.52 59.6602 192.56 57.7102C190.6 55.7602 188 54.6902 185.25 54.7002C182.42 54.7002 179.86 55.8402 177.99 57.6802C172.64 57.6302 168.22 57.5502 164.48 57.3802C169.05 50.0302 172.07 42.8102 173.47 35.8002C174.6 35.2902 175.66 34.5902 176.57 33.6902C180.45 29.7902 180.47 22.9902 176.55 19.0502C174.59 17.1002 171.99 16.0302 169.23 16.0202C166.46 16.0202 163.86 17.1002 161.92 19.0402C161.01 19.9502 160.32 21.0002 159.8 22.1402C152.78 23.5402 145.55 26.5702 138.18 31.1502C138.02 27.3902 137.95 22.9502 137.92 17.6002C139.76 15.7302 140.9 13.1802 140.9 10.3502C140.9 4.64023 136.25 -0.00976562 130.53 -0.00976562C124.81 -0.00976562 120.18 4.64023 120.18 10.3502C120.18 13.0902 121.24 15.6602 123.16 17.6102C123.13 22.9702 123.06 27.4102 122.9 31.1802C115.51 26.5702 108.24 23.5402 101.18 22.1402C100.69 21.0102 100.03 19.9502 99.13 19.0402C95.1 15.0302 88.54 15.0302 84.5 19.0602C82.55 21.0302 81.47 23.6302 81.47 26.4002C81.47 29.1702 82.54 31.7602 84.48 33.7102C85.39 34.6202 86.45 35.3102 87.59 35.8202C88.99 42.8402 92.02 50.0702 96.6 57.4402C92.85 57.5902 88.43 57.6402 83.09 57.6802C81.22 55.8402 78.67 54.7002 75.85 54.7002C73.09 54.7002 70.49 55.7602 68.52 57.7102C66.56 59.6702 65.48 62.2702 65.47 65.0402C65.47 70.7602 70.12 75.4002 75.84 75.4002C78.66 75.4002 81.22 74.2602 83.08 72.4202C104.03 72.5602 110.92 73.0602 119.44 77.9902C119.94 78.4102 120.45 78.8202 120.98 79.1802C121.88 79.7902 122.86 80.3302 123.88 80.7502C124.91 81.1902 125.99 81.5302 127.09 81.7602C128.19 81.9802 129.35 82.1002 130.53 82.1002C131.71 82.1002 132.87 81.9802 133.97 81.7602H133.98ZM86.2 65.0402C86.2 64.5802 86.12 64.1402 86.06 63.6902C99.65 63.5602 107.42 63.1402 113.98 61.0602C113.94 61.2402 113.88 61.4202 113.84 61.6102C113.61 62.7202 113.49 63.8702 113.49 65.0402C113.49 66.2102 113.61 67.3702 113.84 68.4902C113.87 68.6502 113.92 68.8002 113.96 68.9602C107.4 66.9402 99.65 66.5402 86.06 66.4102C86.12 65.9602 86.2 65.5102 86.2 65.0402ZM131.89 20.5702C132.01 34.2702 132.7 42.0802 134.75 48.5502C134.49 48.4802 134.23 48.4002 133.96 48.3502C132.86 48.1302 131.71 48.0102 130.54 48.0102C129.37 48.0102 128.23 48.1302 127.11 48.3502C126.84 48.4102 126.58 48.4902 126.31 48.5602C128.37 42.0902 129.06 34.2902 129.18 20.5902C129.63 20.6502 130.07 20.7202 130.52 20.7202C130.99 20.7202 131.43 20.6402 131.88 20.5802L131.89 20.5702ZM174.88 65.0402C174.88 65.5002 174.96 65.9402 175.02 66.3902C161.31 66.4702 153.63 66.7402 147.19 68.6802C147.2 68.6202 147.23 68.5502 147.24 68.4902C147.71 66.2402 147.71 63.8802 147.24 61.6202C147.19 61.3602 147.11 61.1002 147.04 60.8402C153.61 62.9802 161.37 63.5102 175.01 63.6802C174.95 64.1302 174.87 64.5702 174.87 65.0302L174.88 65.0402ZM121.4 58.9002C121.8 58.3102 122.26 57.7702 122.77 57.2602C123.27 56.7602 123.82 56.3102 124.39 55.9202C124.97 55.5302 125.6 55.1802 126.26 54.9102C126.92 54.6302 127.61 54.4102 128.32 54.2702C129.04 54.1302 129.78 54.0502 130.55 54.0502C131.32 54.0502 132.06 54.1302 132.76 54.2702C133.48 54.4202 134.18 54.6402 134.84 54.9102C135.49 55.1902 136.12 55.5402 136.69 55.9102C137.28 56.3202 137.83 56.7602 138.35 57.2902C138.85 57.7902 139.3 58.3302 139.68 58.8902C140.07 59.4802 140.42 60.1102 140.7 60.7802C140.98 61.4402 141.19 62.1202 141.33 62.8302C141.48 63.5802 141.56 64.3002 141.56 65.0502C141.56 65.8002 141.49 66.5402 141.34 67.2702C141.18 67.9902 140.97 68.6902 140.69 69.3502C140.41 70.0102 140.06 70.6402 139.68 71.2102C139.28 71.8002 138.82 72.3502 138.33 72.8502C137.84 73.3402 137.3 73.7902 136.69 74.2002C136.11 74.5902 135.49 74.9302 134.85 75.2102C134.18 75.4902 133.49 75.7102 132.77 75.8502C132.07 76.0002 131.32 76.0702 130.56 76.0702C129.8 76.0702 129.05 76.0002 128.35 75.8502C127.64 75.7102 126.95 75.4902 126.27 75.2002C125.61 74.9202 124.98 74.5802 124.4 74.1902C123.82 73.8002 123.27 73.3502 122.77 72.8402C122.27 72.3402 121.82 71.8002 121.42 71.2102C121.03 70.6202 120.69 70.0002 120.41 69.3302C120.13 68.6702 119.91 67.9802 119.77 67.2702C119.48 65.8402 119.48 64.2602 119.77 62.8302C119.92 62.1202 120.13 61.4302 120.42 60.7702C120.7 60.1102 121.03 59.4902 121.42 58.9102L121.4 58.9002ZM142.96 52.5302C142.39 51.5102 141.89 50.5002 141.44 49.4802C146.15 45.7902 151.16 42.3002 157.21 38.3802C153.3 44.4202 149.82 49.4202 146.14 54.1002C145.07 53.6402 144.02 53.1202 142.95 52.5302H142.96ZM117.95 52.8202C116.97 53.3602 115.99 53.8402 115 54.2702C111.27 49.5202 107.76 44.4802 103.82 38.4002C109.9 42.3302 114.91 45.8202 119.61 49.5102C119.12 50.6202 118.57 51.7102 117.95 52.8202ZM188.28 61.9902C189.1 62.8002 189.55 63.8902 189.55 65.0402C189.55 67.4202 187.62 69.3602 185.24 69.3602C182.86 69.3602 180.92 67.4202 180.92 65.0402C180.92 62.6602 182.86 60.7302 185.25 60.7302C186.4 60.7302 187.48 61.1702 188.29 61.9802L188.28 61.9902ZM152.28 56.0402C156.64 50.3202 160.8 44.0702 165.81 36.1102C166.2 36.2502 166.6 36.3902 167.01 36.4802C165.43 43.0502 162.31 49.8702 157.59 56.8802C155.63 56.6602 153.89 56.3902 152.29 56.0402H152.28ZM172.27 23.3202C173.09 24.1402 173.53 25.2202 173.53 26.3802C173.53 27.5402 173.09 28.6202 172.29 29.4202C171.46 30.2402 170.37 30.6902 169.21 30.6902C168.07 30.6902 166.99 30.2402 166.17 29.4202C164.54 27.8002 164.53 24.9602 166.19 23.3102C166.99 22.5002 168.07 22.0602 169.23 22.0602C170.39 22.0602 171.48 22.5102 172.28 23.3202H172.27ZM159.11 28.5802C159.2 28.9902 159.34 29.3902 159.47 29.7802C151.5 34.7902 145.24 38.9702 139.49 43.3502C139.14 41.7402 138.87 40.0002 138.66 38.0502C145.69 33.3002 152.53 30.1702 159.1 28.5902L159.11 28.5802ZM130.53 6.04023C132.91 6.04023 134.86 7.98023 134.86 10.3602C134.86 12.7402 132.92 14.6702 130.53 14.6702C129.39 14.6702 128.31 14.2302 127.49 13.4202C126.67 12.6002 126.22 11.5202 126.22 10.3602C126.22 7.98023 128.15 6.04023 130.53 6.04023ZM121.57 43.3802C115.83 39.0002 109.54 34.8102 101.5 29.7502C101.63 29.3602 101.76 28.9702 101.84 28.5702C108.46 30.1502 115.34 33.2902 122.41 38.0602C122.2 40.0102 121.93 41.7602 121.57 43.3702V43.3802ZM88.75 29.4402C87.14 27.8202 87.15 24.9502 88.77 23.3402C90.45 21.6602 93.19 21.6602 94.86 23.3302C95.69 24.1602 96.13 25.2402 96.13 26.4002C96.13 27.5602 95.69 28.6302 94.86 29.4402C94.05 30.2602 92.97 30.7102 91.82 30.7102C90.66 30.7102 89.57 30.2602 88.75 29.4402ZM94.02 36.4902C94.43 36.4002 94.82 36.2602 95.22 36.1302C100.25 44.1302 104.44 50.4102 108.85 56.1902C107.24 56.5302 105.48 56.7902 103.51 56.9902C98.74 49.9502 95.61 43.0902 94.02 36.5002V36.4902ZM71.52 65.0502C71.52 63.8902 71.97 62.8102 72.79 61.9902C73.6 61.1802 74.69 60.7302 75.85 60.7402C78.22 60.7402 80.16 62.6702 80.16 65.0502C80.16 67.4302 78.23 69.3702 75.85 69.3702C73.47 69.3702 71.52 67.4402 71.52 65.0602V65.0502Z" fill="#41C4E6"></path><path d="M5.98001 104.21C6.42001 104.21 6.81001 104.25 7.13001 104.33C7.45001 104.41 7.73001 104.57 7.98001 104.79C8.22001 105.02 8.44001 105.33 8.63001 105.72C8.82001 106.11 9.02001 106.63 9.22001 107.27L15.5 126.6C15.58 126.84 15.72 126.96 15.92 126.96H16.28C16.48 126.96 16.62 126.84 16.7 126.6L22.98 107.27C23.18 106.63 23.38 106.11 23.57 105.72C23.76 105.33 23.98 105.02 24.22 104.79C24.46 104.56 24.74 104.41 25.05 104.33C25.36 104.25 25.74 104.21 26.18 104.21H29.41C30.46 104.21 31.16 104.53 31.52 105.16C31.88 105.79 32.06 106.87 32.06 108.4V131.51C32.06 132.1 31.83 132.4 31.37 132.4H28.29C27.85 132.4 27.63 132.1 27.63 131.51V110.49C27.63 110.22 27.55 110.09 27.39 110.09H27.12C26.92 110.09 26.79 110.2 26.73 110.41L20.63 128.45C20.39 129.17 20.14 129.79 19.89 130.28C19.64 130.78 19.37 131.19 19.07 131.51C18.78 131.83 18.45 132.06 18.07 132.19C17.7 132.32 17.26 132.39 16.76 132.39H15.31C14.81 132.39 14.37 132.32 14 132.19C13.63 132.06 13.3 131.83 13 131.51C12.71 131.19 12.44 130.78 12.18 130.28C11.93 129.78 11.68 129.17 11.44 128.45L5.34001 110.41C5.28001 110.2 5.15001 110.09 4.95001 110.09H4.68001C4.52001 110.09 4.44001 110.22 4.44001 110.49V131.51C4.44001 132.1 4.22001 132.4 3.78001 132.4H0.70001C0.24001 132.4 0.0100098 132.1 0.0100098 131.51V108.4C0.0100098 106.87 0.19001 105.79 0.55001 105.16C0.91001 104.53 1.63001 104.21 2.69001 104.21H5.98001Z" fill="white"></path><path d="M49.3801 110.29C50.7301 110.29 51.8701 110.44 52.7901 110.75C53.7201 111.06 54.46 111.54 55.01 112.2C55.56 112.86 55.9601 113.7 56.2001 114.74C56.4401 115.77 56.5601 117.01 56.5601 118.46V129.17C56.5601 129.81 56.5201 130.34 56.4501 130.76C56.3801 131.18 56.26 131.5 56.09 131.75C55.92 131.99 55.69 132.16 55.41 132.25C55.13 132.34 54.77 132.39 54.32 132.39H39.9501C39.0601 132.39 38.32 132.28 37.73 132.05C37.14 131.82 36.66 131.48 36.3 131.02C35.94 130.56 35.68 129.97 35.53 129.25C35.38 128.53 35.3 127.67 35.3 126.67V124.74C35.3 123.91 35.38 123.16 35.53 122.51C35.68 121.85 35.94 121.3 36.3 120.84C36.66 120.38 37.14 120.04 37.73 119.81C38.32 119.58 39.0601 119.47 39.9501 119.47H52.2401V118.7C52.2401 118.06 52.19 117.51 52.09 117.05C51.99 116.59 51.8201 116.22 51.5801 115.94C51.3401 115.66 51.0101 115.45 50.5801 115.32C50.1601 115.19 49.6101 115.12 48.9501 115.12H36.3301C35.9701 115.12 35.7901 114.88 35.7901 114.4V111.02C35.7901 110.54 35.9701 110.3 36.3301 110.3H49.3801V110.29ZM51.37 127.96C51.69 127.96 51.92 127.86 52.05 127.66C52.18 127.46 52.25 127.1 52.25 126.59V123.05H41.2001C40.5801 123.05 40.14 123.22 39.89 123.55C39.64 123.89 39.51 124.38 39.51 125.02V125.87C39.51 126.59 39.64 127.13 39.89 127.46C40.14 127.8 40.5801 127.96 41.2001 127.96H51.3801H51.37Z" fill="white"></path><path d="M61.8199 110.29V104.97C61.8199 104.38 62.0399 104.08 62.4799 104.08H65.4699C65.9099 104.08 66.1299 104.38 66.1299 104.97V110.29H71.4099C71.7699 110.29 71.9499 110.53 71.9499 111.01V114.31C71.9499 114.79 71.7699 115.03 71.4099 115.03H66.1299V124.37C66.1299 125.5 66.2999 126.32 66.6399 126.85C66.9799 127.37 67.6599 127.64 68.6599 127.64H71.5899C71.9499 127.64 72.1299 127.88 72.1299 128.36V131.66C72.1299 132.14 71.9499 132.38 71.5899 132.38H67.9399C66.7299 132.38 65.7399 132.23 64.9499 131.94C64.1599 131.64 63.5399 131.17 63.0599 130.53C62.5899 129.89 62.2599 129.05 62.0799 128.03C61.8999 127.01 61.8099 125.79 61.8099 124.37V115.03H58.9399C58.5799 115.03 58.3999 114.79 58.3999 114.31V111.01C58.3999 110.53 58.5799 110.29 58.9399 110.29H61.8099H61.8199Z" fill="white"></path><path d="M93.1901 110.29C93.5501 110.29 93.7301 110.53 93.7301 111.01V114.39C93.7301 114.87 93.5501 115.11 93.1901 115.11H81.4701C80.8101 115.11 80.2601 115.18 79.8401 115.33C79.4201 115.48 79.0901 115.72 78.8401 116.05C78.6001 116.39 78.4301 116.84 78.3301 117.42C78.2301 118 78.1801 118.7 78.1801 119.53V123.11C78.1801 123.97 78.2301 124.68 78.3301 125.24C78.4301 125.8 78.6001 126.25 78.8401 126.59C79.0801 126.93 79.4101 127.17 79.8401 127.31C80.2601 127.46 80.8101 127.53 81.4701 127.53H93.1901C93.5501 127.53 93.7301 127.77 93.7301 128.26V131.64C93.7301 132.12 93.5501 132.36 93.1901 132.36H81.0501C79.6801 132.36 78.5401 132.21 77.6201 131.92C76.7001 131.62 75.9701 131.15 75.4201 130.49C74.8701 129.83 74.4701 128.99 74.2301 127.95C73.9901 126.92 73.8701 125.68 73.8701 124.23V118.43C73.8701 116.98 73.9901 115.74 74.2301 114.71C74.4701 113.68 74.8701 112.83 75.4201 112.17C75.9701 111.51 76.7101 111.03 77.6201 110.72C78.5401 110.41 79.6801 110.26 81.0501 110.26H93.1901V110.29Z" fill="white"></path><path d="M100.26 102.19C100.7 102.19 100.92 102.49 100.92 103.08V110.29H112.21C113.56 110.29 114.7 110.44 115.62 110.75C116.55 111.06 117.29 111.54 117.84 112.2C118.39 112.86 118.79 113.7 119.03 114.74C119.27 115.77 119.39 117.01 119.39 118.46V131.51C119.39 132.1 119.17 132.4 118.73 132.4H115.77C115.33 132.4 115.11 132.1 115.11 131.51V119.83C115.11 119 115.07 118.29 114.99 117.72C114.91 117.14 114.75 116.69 114.52 116.35C114.29 116.01 113.97 115.77 113.57 115.62C113.17 115.47 112.64 115.4 112 115.4H100.92V131.51C100.92 132.1 100.7 132.4 100.26 132.4H97.2999C96.8599 132.4 96.6399 132.1 96.6399 131.51V103.08C96.6399 102.49 96.8599 102.19 97.2999 102.19H100.26Z" fill="white"></path><path d="M132.42 115.44C133.01 115.44 133.31 115.74 133.31 116.33V120.2C133.31 120.79 133.01 121.09 132.42 121.09H128.47C127.85 121.09 127.54 120.8 127.54 120.2V116.33C127.54 115.74 127.85 115.44 128.47 115.44H132.42Z" fill="white"></path><path d="M157.75 104.21C158.21 104.21 158.44 104.51 158.44 105.1V108.05C158.44 108.67 158.21 108.98 157.75 108.98H148.27V131.51C148.27 132.1 148.05 132.4 147.61 132.4H144.32C143.88 132.4 143.66 132.1 143.66 131.51V108.98H134.18C133.72 108.98 133.49 108.67 133.49 108.05V105.1C133.49 104.51 133.72 104.21 134.18 104.21H157.77H157.75Z" fill="white"></path><path d="M175.99 110.29C176.35 110.29 176.53 110.53 176.53 111.01V114.39C176.53 114.87 176.35 115.11 175.99 115.11H167.96C167.32 115.11 166.78 115.18 166.36 115.33C165.94 115.48 165.6 115.72 165.35 116.05C165.1 116.39 164.92 116.84 164.82 117.42C164.72 118 164.67 118.7 164.67 119.53V131.49C164.67 132.08 164.45 132.38 164.01 132.38H161.05C160.59 132.38 160.36 132.08 160.36 131.49V118.44C160.36 116.99 160.48 115.75 160.72 114.72C160.96 113.69 161.36 112.84 161.91 112.18C162.46 111.52 163.2 111.04 164.11 110.73C165.03 110.42 166.17 110.27 167.54 110.27H176L175.99 110.29Z" fill="white"></path><path d="M192.36 110.29C193.71 110.29 194.85 110.44 195.77 110.75C196.7 111.06 197.44 111.54 197.99 112.2C198.54 112.86 198.94 113.7 199.18 114.74C199.42 115.77 199.54 117.01 199.54 118.46V129.17C199.54 129.81 199.5 130.34 199.43 130.76C199.36 131.18 199.24 131.5 199.07 131.75C198.9 131.99 198.67 132.16 198.39 132.25C198.11 132.34 197.75 132.39 197.3 132.39H182.93C182.04 132.39 181.3 132.28 180.71 132.05C180.12 131.82 179.64 131.48 179.28 131.02C178.92 130.56 178.66 129.97 178.51 129.25C178.36 128.53 178.28 127.67 178.28 126.67V124.74C178.28 123.91 178.36 123.16 178.51 122.51C178.66 121.85 178.92 121.3 179.28 120.84C179.64 120.38 180.12 120.04 180.71 119.81C181.3 119.58 182.04 119.47 182.93 119.47H195.22V118.7C195.22 118.06 195.17 117.51 195.07 117.05C194.97 116.59 194.8 116.22 194.56 115.94C194.32 115.66 193.99 115.45 193.56 115.32C193.14 115.19 192.59 115.12 191.93 115.12H179.31C178.95 115.12 178.77 114.88 178.77 114.4V111.02C178.77 110.54 178.95 110.3 179.31 110.3H192.36V110.29ZM194.35 127.96C194.67 127.96 194.9 127.86 195.03 127.66C195.16 127.46 195.23 127.1 195.23 126.59V123.05H184.18C183.56 123.05 183.12 123.22 182.87 123.55C182.62 123.89 182.49 124.38 182.49 125.02V125.87C182.49 126.59 182.62 127.13 182.87 127.46C183.12 127.8 183.56 127.96 184.18 127.96H194.36H194.35Z" fill="white"></path><path d="M221.04 110.29V103.08C221.04 102.49 221.26 102.19 221.7 102.19H224.66C225.1 102.19 225.32 102.49 225.32 103.08V124.26C225.32 125.71 225.2 126.95 224.96 127.98C224.72 129.01 224.32 129.86 223.77 130.52C223.22 131.18 222.48 131.65 221.55 131.95C220.62 132.25 219.49 132.39 218.14 132.39H209.68C208.31 132.39 207.17 132.24 206.25 131.95C205.33 131.65 204.6 131.18 204.05 130.52C203.5 129.86 203.1 129.02 202.86 127.98C202.62 126.95 202.5 125.71 202.5 124.26V118.46C202.5 117.01 202.62 115.77 202.86 114.74C203.1 113.71 203.5 112.86 204.05 112.2C204.6 111.54 205.34 111.06 206.25 110.75C207.17 110.44 208.31 110.29 209.68 110.29H221.03H221.04ZM217.72 127.56C218.38 127.56 218.93 127.49 219.35 127.34C219.77 127.19 220.11 126.95 220.36 126.62C220.61 126.28 220.79 125.83 220.89 125.27C220.99 124.71 221.04 124 221.04 123.14V115.13H210.11C209.47 115.13 208.93 115.2 208.51 115.35C208.09 115.5 207.75 115.74 207.5 116.07C207.25 116.41 207.07 116.86 206.97 117.44C206.87 118.02 206.82 118.72 206.82 119.55V123.13C206.82 123.99 206.87 124.7 206.97 125.26C207.07 125.82 207.25 126.27 207.5 126.61C207.75 126.95 208.09 127.19 208.51 127.33C208.93 127.48 209.47 127.55 210.11 127.55H217.72V127.56Z" fill="white"></path><path d="M244.45 110.29C245.48 110.29 246.33 110.4 247 110.63C247.67 110.86 248.21 111.23 248.6 111.76C248.99 112.28 249.27 112.97 249.43 113.81C249.59 114.66 249.67 115.68 249.67 116.89V120.72C249.67 121.58 249.53 122.18 249.25 122.51C248.97 122.85 248.54 123.01 247.95 123.01H232.7V123.98C232.7 125.24 232.93 126.15 233.38 126.72C233.83 127.28 234.71 127.57 236.02 127.57H248.61C248.97 127.57 249.15 127.81 249.15 128.3V131.68C249.15 132.16 248.97 132.4 248.61 132.4H235.59C234.22 132.4 233.08 132.25 232.16 131.96C231.24 131.66 230.51 131.19 229.96 130.53C229.41 129.87 229.01 129.03 228.77 127.99C228.53 126.96 228.41 125.72 228.41 124.27V118.47C228.41 117.02 228.53 115.78 228.77 114.75C229.01 113.72 229.41 112.87 229.96 112.21C230.51 111.55 231.25 111.07 232.16 110.76C233.08 110.45 234.22 110.3 235.59 110.3H244.44L244.45 110.29ZM232.7 119.43H244.93C245.27 119.43 245.44 119.2 245.44 118.75V117.06C245.44 116.23 245.31 115.64 245.05 115.29C244.79 114.94 244.31 114.77 243.6 114.77H236.02C234.71 114.77 233.83 115.05 233.38 115.6C232.93 116.15 232.7 117.07 232.7 118.36V119.45V119.43Z" fill="white"></path><path d="M268.46 110.29C268.82 110.29 269 110.53 269 111.01V114.39C269 114.87 268.82 115.11 268.46 115.11H260.43C259.79 115.11 259.25 115.18 258.83 115.33C258.41 115.48 258.07 115.72 257.82 116.05C257.57 116.39 257.39 116.84 257.29 117.42C257.19 118 257.14 118.7 257.14 119.53V131.49C257.14 132.08 256.92 132.38 256.48 132.38H253.52C253.06 132.38 252.83 132.08 252.83 131.49V118.44C252.83 116.99 252.95 115.75 253.19 114.72C253.43 113.69 253.83 112.84 254.38 112.18C254.93 111.52 255.67 111.04 256.58 110.73C257.5 110.42 258.64 110.27 260.01 110.27H268.47L268.46 110.29Z" fill="white"></path></g><defs><clipPath id="clip0_526_61"><rect width="269" height="164.56" fill="white"></rect></clipPath></defs></svg>