<svg xmlns="http://www.w3.org/2000/svg" width="600" height="79" viewBox="0 0 600 79" fill="none"><path d="M152.8 60.7H164.5V14.8H179.8V3.7H137.6V14.8H152.8V60.7ZM179.8 60.7H190.8V41.5C190.8 34.8 194.2 30.8 199.5 30.8C201.3 30.8 202.8 31.1 204.5 31.7V20.5C203.3 20.2 202 20 200.8 20C196.3 20 192.2 23 190.8 26.9V20.5H179.8V60.7ZM225.6 61.6C231.1 61.6 235.3 58.8 237.2 56.2V60.7H248.2V20.6H237.2V25.1C235.4 22.5 231.2 19.7 225.6 19.7C214.9 19.7 206.7 29.3 206.7 40.7C206.7 52 214.9 61.6 225.6 61.6ZM227.9 51.6C221.8 51.6 217.8 47 217.8 40.7C217.8 34.4 221.8 29.8 227.9 29.8C234 29.8 238 34.4 238 40.7C238 47 234 51.6 227.9 51.6ZM274.3 61.6C279.8 61.6 284 58.8 285.9 56.2V60.7H296.9V0.5H285.9V25.1C284.1 22.5 279.9 19.7 274.3 19.7C263.6 19.7 255.4 29.3 255.4 40.7C255.5 52 263.6 61.6 274.3 61.6ZM276.7 51.6C270.6 51.6 266.6 47 266.6 40.7C266.6 34.4 270.6 29.8 276.7 29.8C282.8 29.8 286.8 34.4 286.8 40.7C286.8 47 282.8 51.6 276.7 51.6ZM312.2 14.5C316.1 14.5 319.3 11.4 319.3 7.5C319.3 3.6 316.1 0.5 312.2 0.5C308.4 0.5 305.2 3.6 305.2 7.5C305.3 11.3 308.4 14.4 312.2 14.5ZM306.8 60.7H317.8V21H306.8V60.7ZM327.5 60.7H338.5V41.1C338.5 33.4 342.3 29.7 347.4 29.7C352 29.7 354.5 33.2 354.5 39V60.7H365.5V37.2C365.5 26.8 359.7 19.7 350 19.7C344.8 19.7 340.7 21.9 338.5 25.2V20.6H327.5V60.7ZM393.5 50C388 50 383.3 45.8 383.3 39.7C383.3 33.5 387.9 29.4 393.5 29.4C399 29.4 403.7 33.5 403.7 39.7C403.7 45.9 399.1 50 393.5 50ZM392.2 78.1C404.5 78.1 413.8 71.8 413.8 57.4V20.4H402.8V24.9C400.6 21.8 396.3 19.5 391.2 19.5C380.7 19.5 372.3 28.5 372.3 39.8C372.3 51 380.7 60 391.2 60C396.3 60 400.7 57.7 402.8 54.7V57.4C402.8 63.8 398.5 68.4 392 68.4C387.5 68.4 383 66.9 379.5 63.4L373.5 71.6C378.1 76.1 385.2 78.1 392.2 78.1ZM437.1 60.7H447.5L471.1 3.7H458.3L442.4 43.3L426.3 3.7H413.7L437.1 60.7ZM481.1 14C485 14 488.1 10.9 488.2 7C488.2 3.1 485 0 481.1 0C477.3 0 474.1 3.1 474.1 7C474.1 10.9 477.4 14 481.1 14ZM475.7 60.7H486.7V20.5H475.7V60.7ZM515.1 61.6C523.5 61.6 529.9 58.1 533.7 52.6L525.5 46.5C523.7 49.3 520.2 51.6 515.1 51.6C509.8 51.6 505.1 48.6 504.4 43.2H534.4C534.6 41.5 534.6 40.4 534.6 39.4C534.6 26.3 525.4 19.7 514.8 19.7C502.6 19.7 493.7 28.8 493.7 40.6C493.9 53.3 503.2 61.6 515.1 61.6ZM504.9 35.8C506 30.9 510.5 28.8 514.6 28.8C518.7 28.8 522.7 31 523.7 35.8H504.9ZM575.9 60.7H586.8L600 20.5H588.2L580.7 46.2L572.5 20.5H564.1L556 46.2L548.4 20.5H536.7L550 60.7H560.9L568.4 37.9L575.9 60.7Z" fill="white"></path><path d="M44.4 60.6997H22.2V25.8997H0V3.69971H44.3V60.6997H44.4ZM88.8 60.6997H63.5L87.3 3.69971H112.6L88.8 60.6997ZM63.4 3.69971C70.4 3.69971 76.1 9.39972 76.1 16.3997C76.1 23.3997 70.4 29.0997 63.4 29.0997C56.4 29.0997 50.7 23.3997 50.7 16.3997C50.8 9.39972 56.4 3.69971 63.4 3.69971Z" fill="white"></path></svg>