<svg xmlns="http://www.w3.org/2000/svg" width="107" height="38" viewBox="0 0 107 38" fill="none"><path d="M74.1411 6.11963H65.3711V31.8588H74.1411V6.11963Z" fill="white"></path><path d="M70.45 0.683594H69V37.3058H70.48L70.45 0.683594Z" fill="white"></path><path d="M16.3099 16.2765C14.8699 15.5823 10.37 13.7026 9.54004 12.2181C9.26004 11.7695 9.21997 11.2248 9.21997 10.6802C9.21997 8.94997 10.7 7.80719 12.24 7.80719C14.47 7.80719 15.12 9.34509 15.4 11.3743H24.0699C23.9799 8.50136 23.56 6.47219 21.8 4.15459C19.62 1.33503 15.86 0 12.52 0C6.67002 0 0.5 3.96231 0.5 10.7869C0.5 16.5222 4.44002 19.299 8.90002 21.2748C9.92002 21.7234 10.94 22.1613 11.96 22.6633C13.77 23.507 15.63 24.2973 15.63 26.6683C15.63 28.6441 14.1 30.1821 12.29 30.1821C9.74004 30.1821 8.71997 27.5548 8.71997 25.1838H0V26.3693C0 34.1872 5.47001 38 12.39 38C19.31 38 24.36 34.4328 24.36 26.7645C24.36 21.0292 20.88 18.498 16.33 16.2765H16.3099Z" fill="white"></path><path d="M35.4302 9.9541H26.6602V35.6932H35.4302V9.9541Z" fill="white"></path><path d="M63.9296 13.3075C63.9296 9.49473 62.5395 5.73526 59.7095 3.31087C56.7395 0.790354 52.7495 0.683594 49.1295 0.683594H38.2695V37.3058H46.6696V25.4829H46.7595L54.6895 37.3058H64.7095L55.3795 24.8314C60.8095 23.8915 63.9196 18.9467 63.9196 13.3075H63.9296ZM49.7795 19.0962H46.6696V8.90726H49.8695C52.8895 8.90726 55.5295 10.2423 55.5295 13.8522C55.5295 17.4621 53.0695 19.0962 49.7795 19.0962Z" fill="white"></path><path d="M93.6622 18.8719L93.7322 18.9893L106.042 0.683594H95.0522L88.2422 10.819L93.5621 18.7437L93.6522 18.8719H93.6622Z" fill="#6D6D6D"></path><path d="M93.7322 18.9897L88.2422 27.1601L95.1222 37.3062H106.112L93.7322 18.9897Z" fill="#6D6D6D"></path><path d="M93.7301 18.9895L93.6602 18.8721L93.7301 18.9895Z" fill="#575757"></path><path d="M93.6487 18.8723L93.5586 18.7441L93.6487 18.8723Z" fill="#F15623"></path><path d="M93.6508 18.8725L93.1407 18.1143L92.5508 18.99H93.7307L93.6508 18.8725Z" fill="#F15623"></path><path d="M93.6484 18.8721L93.7284 18.9895L93.6584 18.8721H93.6484Z" fill="#F15623"></path><path d="M93.4492 18.5728L93.6493 18.8719L93.5592 18.7437L89.7793 13.1046L89.7593 13.0939L81.4193 0.683594H70.4492L74.7393 7.10231L74.8092 7.19846L82.7393 18.9893L74.8092 30.7909L74.7393 30.8763L70.4792 37.3058H74.7393H81.4193L83.8793 33.6425L85.1992 31.6773L88.2393 27.1597L93.7292 18.9893L93.4492 18.5728Z" fill="#F15623"></path><path d="M31.7991 0.683594H30.2891V37.3058H31.7991V0.683594Z" fill="white"></path></svg>