<svg xmlns="http://www.w3.org/2000/svg" xmlns:xlink="http://www.w3.org/1999/xlink" id="katman_1" x="0px" y="0px" viewBox="0 0 560 400" style="enable-background:new 0 0 560 400;" xml:space="preserve"><style type="text/css">	.st0{fill:#FF4A00;}</style><path class="st0" d="M316,189.2h-9c-0.2-0.7-0.3-1.6-0.4-2.6c-0.2-1.9-0.2-3.8,0-5.7c0.1-1,0.2-1.8,0.4-2.6h22.4v70.8 c-1.1,0.2-2.2,0.3-3.4,0.4c-1.1,0.1-2.3,0.1-3.4,0.1c-1.1,0-2.2-0.1-3.2-0.1c-1.1-0.1-2.3-0.2-3.4-0.4L316,189.2L316,189.2 L316,189.2z M393.9,207c0-2.6-0.3-5-1-7.4c-0.7-2.3-1.7-4.4-3-6.1c-1.3-1.7-3-3.2-5.1-4.2c-2.1-1.1-4.5-1.6-7.4-1.6 c-5.6,0-9.9,1.7-12.9,5.1c-3,3.4-4.8,8.1-5.5,14.2L393.9,207z M358.8,217.2c0.2,7.7,2.2,13.4,6,17c3.8,3.6,9.5,5.4,16.9,5.4 c6.5,0,12.7-1.2,18.6-3.5c0.7,1.4,1.3,3.1,1.8,5c0.5,1.9,0.7,3.9,0.8,5.9c-3,1.3-6.4,2.3-10,2.9c-3.6,0.6-7.7,1-12.1,1 c-6.4,0-12-0.9-16.6-2.7c-4.6-1.8-8.4-4.3-11.4-7.6c-3-3.3-5.2-7.1-6.6-11.6c-1.4-4.5-2.1-9.4-2.1-14.7c0-5.2,0.7-10.1,2-14.7 c1.3-4.6,3.4-8.5,6.1-11.9c2.8-3.4,6.2-6,10.4-8c4.2-2,9.1-3,14.8-3c4.9,0,9.2,0.8,12.8,2.5c3.7,1.7,6.8,3.9,9.2,6.8 c2.5,2.9,4.4,6.4,5.7,10.4c1.3,4,1.9,8.4,1.9,13c0,1.3,0,2.6-0.1,4.1c-0.1,1.2-0.2,2.4-0.3,3.7L358.8,217.2L358.8,217.2L358.8,217.2 z M422.5,178.4c1-0.2,1.9-0.3,2.9-0.4c0.9-0.1,1.9-0.1,2.9-0.1s2,0,3,0.1c1,0.1,1.9,0.2,2.8,0.4c0.3,1.4,0.5,3.2,0.8,5.5 c0.3,2.3,0.4,4.2,0.4,5.7c1.9-3.1,4.5-5.8,7.7-8.1c3.2-2.3,7.2-3.4,12.2-3.4c0.7,0,1.5,0,2.3,0.1c0.7,0,1.3,0.1,2,0.2 c0.2,0.8,0.3,1.7,0.4,2.6s0.1,1.9,0.1,2.9c0,1.1-0.1,2.3-0.2,3.4c-0.1,1.2-0.3,2.3-0.5,3.5c-0.7-0.2-1.5-0.3-2.3-0.3h-1.9 c-2.5,0-4.9,0.3-7.1,1c-2.3,0.7-4.3,1.9-6.1,3.7c-1.8,1.8-3.2,4.1-4.3,7.2c-1.1,3-1.6,6.9-1.6,11.7v35.2c-1.1,0.2-2.2,0.3-3.4,0.4 c-1.2,0.1-2.4,0.1-3.4,0.1c-1.1,0-2.3-0.1-3.4-0.1c-1.2-0.1-2.4-0.2-3.5-0.4L422.5,178.4L422.5,178.4z M325.6,140.6 c0,1.7-0.3,3.3-0.9,4.8c-1.5,0.6-3.2,0.9-4.8,0.9h0c-1.7,0-3.3-0.3-4.8-0.9c-0.6-1.5-0.9-3.2-0.9-4.8v0c0-1.7,0.3-3.3,0.9-4.8 c1.5-0.6,3.2-0.9,4.8-0.9h0c1.7,0,3.3,0.3,4.8,0.9C325.3,137.3,325.6,138.9,325.6,140.6L325.6,140.6L325.6,140.6L325.6,140.6z  M342.4,136.8h-13.4l9.5-9.5c-1.5-2.1-3.3-3.9-5.4-5.4l-9.5,9.5V118c-1.3-0.2-2.5-0.3-3.8-0.3h0c-1.3,0-2.6,0.1-3.8,0.3v13.4 l-9.5-9.5c-1,0.7-2,1.6-2.9,2.5l0,0c-0.9,0.9-1.7,1.9-2.5,2.9l9.5,9.5h-13.4c0,0-0.3,2.5-0.3,3.8v0c0,1.3,0.1,2.6,0.3,3.8h13.4 l-9.5,9.5c1.5,2.1,3.3,3.9,5.4,5.4l9.5-9.5v13.4c1.2,0.2,2.5,0.3,3.8,0.3h0c1.3,0,2.5-0.1,3.8-0.3v-13.4l9.5,9.5 c1-0.7,2-1.6,2.9-2.5h0c0.9-0.9,1.7-1.9,2.5-2.9l-9.5-9.5h13.4c0.2-1.2,0.3-2.5,0.3-3.8v0C342.8,139.3,342.7,138,342.4,136.8 L342.4,136.8z M100,247.3l37.3-58h-32.9c-0.3-1.7-0.4-3.5-0.4-5.5c0-1.9,0.1-3.7,0.4-5.4h53.1l0.7,1.8l-37.5,58.1h35.2 c0.3,1.8,0.4,3.7,0.4,5.7c0,1.8-0.1,3.6-0.4,5.2h-55.2L100,247.3L100,247.3z M207.5,215.9c-1.4-0.2-3.1-0.4-5.2-0.6 c-2.1-0.2-3.9-0.3-5.4-0.3c-5.7,0-10.1,1.1-13,3.2c-3,2.1-4.5,5.3-4.5,9.7c0,2.8,0.5,4.9,1.5,6.5c1,1.6,2.3,2.8,3.8,3.6 c1.5,0.8,3.2,1.3,5,1.5c1.8,0.2,3.6,0.3,5.2,0.3c2.1,0,4.3-0.1,6.6-0.3c2.3-0.2,4.3-0.6,6-1L207.5,215.9L207.5,215.9z M207.5,202.6 c0-5.4-1.4-9.2-4.1-11.3c-2.8-2.1-6.8-3.2-12-3.2c-3.2,0-6.2,0.3-9,0.8c-2.8,0.5-5.5,1.2-8.2,2c-1.8-3-2.6-6.7-2.6-10.9 c3.1-1,6.6-1.8,10.4-2.3c3.8-0.6,7.4-0.8,10.9-0.8c9.2,0,16.2,2.1,21,6.3c4.8,4.2,7.2,10.9,7.2,20.1v44.3c-3.2,0.7-7.1,1.5-11.7,2.3 c-4.7,0.8-9.4,1.2-14.1,1.2c-4.5,0-8.6-0.4-12.2-1.2c-3.6-0.8-6.7-2.2-9.2-4c-2.5-1.8-4.5-4.2-5.9-7c-1.4-2.9-2.1-6.3-2.1-10.4 c0-4,0.8-7.4,2.4-10.4c1.6-3,3.8-5.5,6.6-7.5c2.8-2,5.9-3.5,9.5-4.4c3.6-1,7.4-1.5,11.3-1.5c2.9,0,5.4,0.1,7.2,0.2 c1.9,0.1,3.5,0.3,4.8,0.5L207.5,202.6L207.5,202.6z M249.5,237.6c1.7,0.6,3.5,1.1,5.4,1.4c1.8,0.3,4.2,0.4,7.2,0.4 c3.3,0,6.3-0.5,9.1-1.6c2.8-1.1,5.1-2.7,7.1-4.9c2-2.2,3.5-5,4.7-8.4c1.1-3.4,1.7-7.3,1.7-11.9c0-7.4-1.4-13.2-4.1-17.5 c-2.7-4.3-7.2-6.5-13.3-6.5c-2.3,0-4.5,0.4-6.6,1.2c-2.1,0.8-4,2.1-5.7,3.7s-3,3.8-4,6.3c-1,2.5-1.5,5.5-1.5,9L249.5,237.6 L249.5,237.6L249.5,237.6z M235.8,178.4c0.9-0.2,1.9-0.3,2.8-0.4c1-0.1,2-0.1,3-0.1c0.9,0,1.9,0,2.9,0.1c1,0.1,2,0.2,2.9,0.4 c0.1,0.2,0.2,0.8,0.3,1.7c0.1,1,0.3,2,0.4,3.1c0.1,1.1,0.3,2.2,0.4,3.2c0.1,1,0.2,1.7,0.2,1.9c0.9-1.5,2-2.9,3.3-4.3 c1.3-1.4,2.8-2.6,4.6-3.7c1.8-1.1,3.8-2,6.1-2.6c2.3-0.6,4.8-1,7.5-1c4.1,0,8,0.7,11.5,2.1c3.5,1.4,6.6,3.5,9.1,6.4 c2.5,2.9,4.5,6.6,5.9,11c1.4,4.5,2.1,9.7,2.1,15.8c0,12.1-3.3,21.6-9.9,28.5c-6.6,6.9-15.9,10.3-28,10.3c-2,0-4.1-0.1-6.2-0.4 c-2.1-0.3-4-0.6-5.5-1.1v32.4c-1.2,0.2-2.3,0.3-3.5,0.4c-1.2,0.1-2.4,0.1-3.4,0.1c-1.1,0-2.3-0.1-3.4-0.1c-1.1-0.1-2.3-0.2-3.4-0.4 L235.8,178.4L235.8,178.4z"></path></svg>